<svg width="177" height="34" viewBox="0 0 177 34" fill="none" xmlns="http://www.w3.org/2000/svg">
  <style>
    path {
      fill: #2F3437;
    }
 
    @media (prefers-color-scheme: dark) {
      path {
        fill: #ddd;
      }
    }
  </style>

  <path fill-rule="evenodd" clip-rule="evenodd"
    d="M154 31.8522L165 0.945955L166.864 1.65023L155.864 32.5564L154 31.8522Z" />
  <path fill-rule="evenodd" clip-rule="evenodd"
    d="M174.375 19.2282L176.435 17.1061L176.435 17.1061L174.375 14.984L165.121 5.4506L163.062 7.57269L172.315 17.1061L163.062 26.6394L165.121 28.7615L174.375 19.2282Z"
    />
  <path
    d="M32.8153 27H29.6615L27.3538 14.8462L24.8461 27H21.7846L18.6615 10.8462H20.7692L23.1384 25.8308L25.9846 12.9077H28.7384L31.4461 25.8308L33.8 10.8462H35.8L32.8153 27Z"
    />
  <path
    d="M39.4839 4.12309V13.2308C40.1096 12.3487 40.9044 11.6821 41.8685 11.2308C42.8326 10.7795 43.7967 10.5539 44.7608 10.5539C46.3814 10.5539 47.5506 10.9744 48.2685 11.8154C48.9865 12.6564 49.3455 13.8205 49.3455 15.3077V27H47.4378V14.9692C47.4378 14.0051 47.1762 13.2923 46.6531 12.8308C46.1301 12.3692 45.3352 12.1385 44.2685 12.1385C43.5711 12.1385 42.9096 12.2923 42.2839 12.6C41.6583 12.9077 41.1044 13.2872 40.6224 13.7385C40.1403 14.1795 39.7608 14.6154 39.4839 15.0462V27H37.5762V4.35385L39.4839 4.12309Z"
    />
  <path
    d="M66.6756 10.8462L60.9063 27.1385C60.5576 28.1333 60.1268 29.0769 59.614 29.9692C59.1012 30.8615 58.4192 31.6154 57.5679 32.2308C56.7166 32.8564 55.6089 33.2513 54.2448 33.4154L53.9063 31.7539C55.0345 31.5487 55.9166 31.241 56.5525 30.8308C57.1986 30.4205 57.7012 29.8974 58.0602 29.2615C58.4294 28.6256 58.7576 27.8718 59.0448 27H58.414L52.614 10.8462H54.6756L59.7679 25.3692L64.6909 10.8462H66.6756Z"
    />
  <path
    d="M82.9903 10.8462L75.1287 18.1539L83.9441 27H81.1903L72.4364 18.1846L80.1441 10.8462H82.9903ZM72.1134 4.04616V27H70.2057V4.3077L72.1134 4.04616Z"
    />
  <path d="M86.0435 19.4923V17.7077H98.0742V19.4923H86.0435Z" />
  <path
    d="M108.05 4.3077V23.3385C108.05 24.1795 108.317 24.7744 108.851 25.1231C109.394 25.4718 110.076 25.6462 110.897 25.6462C111.409 25.6462 111.892 25.5949 112.343 25.4923C112.804 25.3898 113.271 25.2462 113.743 25.0615L114.297 26.5385C113.897 26.7333 113.389 26.9077 112.774 27.0615C112.158 27.2256 111.471 27.3077 110.712 27.3077C109.44 27.3077 108.358 26.9641 107.466 26.2769C106.584 25.5795 106.143 24.6 106.143 23.3385V5.96924H101.127V4.3077H108.05Z"
    />
  <path
    d="M124.519 10.5539C125.996 10.5539 127.227 10.8974 128.211 11.5846C129.196 12.2718 129.929 13.241 130.411 14.4923C130.904 15.7436 131.15 17.2205 131.15 18.9231C131.15 20.5231 130.899 21.9539 130.396 23.2154C129.893 24.4769 129.145 25.4769 128.15 26.2154C127.165 26.9436 125.94 27.3077 124.473 27.3077C122.996 27.3077 121.76 26.959 120.765 26.2615C119.781 25.5539 119.037 24.5744 118.534 23.3231C118.042 22.0615 117.796 20.6051 117.796 18.9539C117.796 17.3026 118.047 15.8462 118.55 14.5846C119.052 13.3231 119.801 12.3385 120.796 11.6308C121.801 10.9128 123.042 10.5539 124.519 10.5539ZM124.519 12.2308C123.001 12.2308 121.847 12.7795 121.058 13.8769C120.278 14.9744 119.888 16.6667 119.888 18.9539C119.888 21.1898 120.273 22.8615 121.042 23.9692C121.811 25.0667 122.955 25.6154 124.473 25.6154C125.991 25.6154 127.134 25.0667 127.904 23.9692C128.673 22.8615 129.058 21.1795 129.058 18.9231C129.058 16.6564 128.673 14.9744 127.904 13.8769C127.145 12.7795 126.017 12.2308 124.519 12.2308Z"
    />
  <path
    d="M147.588 9.38462L148.295 11.4769C147.567 11.6821 146.813 11.8051 146.034 11.8462C145.254 11.8872 144.424 11.9077 143.541 11.9077C144.454 12.3282 145.136 12.8872 145.588 13.5846C146.039 14.2718 146.265 15.0564 146.265 15.9385C146.265 17.0051 146.034 17.959 145.572 18.8C145.111 19.6308 144.444 20.2821 143.572 20.7539C142.711 21.2256 141.659 21.4615 140.418 21.4615C139.813 21.4615 139.321 21.4359 138.941 21.3846C138.562 21.3231 138.193 21.2308 137.834 21.1077C137.577 21.3026 137.357 21.559 137.172 21.8769C136.998 22.1949 136.911 22.5282 136.911 22.8769C136.911 23.2974 137.075 23.6462 137.403 23.9231C137.741 24.2 138.336 24.3385 139.188 24.3385H142.172C143.208 24.3385 144.147 24.5282 144.988 24.9077C145.839 25.2872 146.511 25.8 147.003 26.4462C147.506 27.0923 147.757 27.8205 147.757 28.6308C147.757 30.2 147.095 31.3898 145.772 32.2C144.459 33.0205 142.639 33.4308 140.311 33.4308C138.7 33.4308 137.418 33.2615 136.465 32.9231C135.511 32.5949 134.824 32.0769 134.403 31.3692C133.993 30.6718 133.788 29.7692 133.788 28.6615H135.541C135.541 29.3385 135.67 29.8974 135.926 30.3385C136.193 30.7795 136.665 31.1077 137.341 31.3231C138.018 31.5487 138.988 31.6615 140.249 31.6615C141.49 31.6615 142.516 31.5539 143.326 31.3385C144.147 31.1333 144.762 30.8154 145.172 30.3846C145.583 29.9539 145.788 29.4103 145.788 28.7539C145.788 27.9026 145.393 27.2667 144.603 26.8462C143.813 26.4256 142.865 26.2154 141.757 26.2154H138.772C137.48 26.2154 136.526 25.9128 135.911 25.3077C135.295 24.7026 134.988 24.0103 134.988 23.2308C134.988 22.7385 135.131 22.2564 135.418 21.7846C135.716 21.3026 136.157 20.8667 136.741 20.4769C135.849 20.0051 135.183 19.4103 134.741 18.6923C134.3 17.9744 134.08 17.0974 134.08 16.0615C134.08 15.0051 134.341 14.0615 134.865 13.2308C135.388 12.4 136.116 11.7436 137.049 11.2615C137.983 10.7795 139.065 10.5385 140.295 10.5385C141.7 10.518 142.818 10.4667 143.649 10.3846C144.49 10.2923 145.198 10.1641 145.772 10C146.357 9.83591 146.962 9.63078 147.588 9.38462ZM140.249 12.0462C138.793 12.0462 137.726 12.4308 137.049 13.2C136.383 13.9692 136.049 14.9333 136.049 16.0923C136.049 17.241 136.393 18.2051 137.08 18.9846C137.767 19.7539 138.854 20.1385 140.341 20.1385C141.583 20.1385 142.531 19.7795 143.188 19.0615C143.844 18.3436 144.172 17.3487 144.172 16.0769C144.172 14.7641 143.844 13.7641 143.188 13.0769C142.531 12.3898 141.552 12.0462 140.249 12.0462Z"
    />
  <path fill-rule="evenodd" clip-rule="evenodd"
    d="M2.05987 15.3442L1.34002e-05 17.4663L0 17.4663L2.05988 19.5884L11.3137 29.1217L13.3736 26.9997L4.11974 17.4663L13.3736 7.93291L11.3137 5.81082L2.05987 15.3442Z"
    />
</svg>